<mxfile host="app.diagrams.net" modified="2023-08-09T08:39:34.544Z" agent="Mozilla/5.0 (Windows NT 10.0; Win64; x64) AppleWebKit/537.36 (KHTML, like Gecko) Chrome/115.0.0.0 Safari/537.36 Edg/115.0.1901.188" etag="0NvRLWtv9UziB6yqfFby" version="21.6.6" type="github">
  <diagram name="Page-1" id="c7558073-3199-34d8-9f00-42111426c3f3">
    <mxGraphModel dx="933" dy="509" grid="1" gridSize="10" guides="1" tooltips="1" connect="1" arrows="1" fold="1" page="1" pageScale="1" pageWidth="827" pageHeight="1169" background="none" math="0" shadow="0">
      <root>
        <mxCell id="0" />
        <mxCell id="1" parent="0" />
        <mxCell id="g8gkIMgM1_FMlmHCiMEE-98" value="" style="edgeStyle=orthogonalEdgeStyle;rounded=0;orthogonalLoop=1;jettySize=auto;html=1;" edge="1" parent="1" source="g8gkIMgM1_FMlmHCiMEE-96" target="g8gkIMgM1_FMlmHCiMEE-97">
          <mxGeometry relative="1" as="geometry" />
        </mxCell>
        <mxCell id="g8gkIMgM1_FMlmHCiMEE-96" value="img" style="rounded=1;whiteSpace=wrap;html=1;" vertex="1" parent="1">
          <mxGeometry x="130" y="365" width="50" height="40" as="geometry" />
        </mxCell>
        <mxCell id="g8gkIMgM1_FMlmHCiMEE-97" value="encoder" style="whiteSpace=wrap;html=1;rounded=1;" vertex="1" parent="1">
          <mxGeometry x="210" y="300" width="70" height="170" as="geometry" />
        </mxCell>
        <mxCell id="g8gkIMgM1_FMlmHCiMEE-101" value="stage1" style="whiteSpace=wrap;html=1;rounded=1;" vertex="1" parent="1">
          <mxGeometry x="420" y="300" width="50" height="170" as="geometry" />
        </mxCell>
        <mxCell id="g8gkIMgM1_FMlmHCiMEE-102" value="stage2" style="whiteSpace=wrap;html=1;rounded=1;" vertex="1" parent="1">
          <mxGeometry x="530" y="300" width="50" height="170" as="geometry" />
        </mxCell>
        <mxCell id="g8gkIMgM1_FMlmHCiMEE-103" value="" style="whiteSpace=wrap;html=1;aspect=fixed;fillColor=#ffe6cc;strokeColor=#d79b00;" vertex="1" parent="1">
          <mxGeometry x="380" y="300" width="20" height="20" as="geometry" />
        </mxCell>
        <mxCell id="g8gkIMgM1_FMlmHCiMEE-104" value="" style="whiteSpace=wrap;html=1;aspect=fixed;fillColor=#dae8fc;strokeColor=#6c8ebf;" vertex="1" parent="1">
          <mxGeometry x="380" y="330" width="20" height="20" as="geometry" />
        </mxCell>
        <mxCell id="g8gkIMgM1_FMlmHCiMEE-105" value="" style="whiteSpace=wrap;html=1;aspect=fixed;" vertex="1" parent="1">
          <mxGeometry x="380" y="360" width="20" height="20" as="geometry" />
        </mxCell>
        <mxCell id="g8gkIMgM1_FMlmHCiMEE-106" value="" style="whiteSpace=wrap;html=1;aspect=fixed;" vertex="1" parent="1">
          <mxGeometry x="380" y="390" width="20" height="20" as="geometry" />
        </mxCell>
        <mxCell id="g8gkIMgM1_FMlmHCiMEE-107" value="" style="whiteSpace=wrap;html=1;aspect=fixed;" vertex="1" parent="1">
          <mxGeometry x="380" y="420" width="20" height="20" as="geometry" />
        </mxCell>
        <mxCell id="g8gkIMgM1_FMlmHCiMEE-108" value="" style="whiteSpace=wrap;html=1;aspect=fixed;" vertex="1" parent="1">
          <mxGeometry x="380" y="450" width="20" height="20" as="geometry" />
        </mxCell>
      </root>
    </mxGraphModel>
  </diagram>
</mxfile>
